<svg xmlns="http://www.w3.org/2000/svg" viewBox="0 0 127.21 81.98"><defs><style>.cls-1{fill:#a6cfca;}.cls-1,.cls-2,.cls-3,.cls-4,.cls-6{stroke:#231f20;stroke-miterlimit:10;}.cls-2{fill:#eac19e;}.cls-3{fill:#90a9cf;}.cls-4,.cls-5{fill:#fff;}.cls-6{fill:none;stroke-width:0.5px;}</style></defs><g id="Grass"><rect class="cls-1" x="0.5" y="72.71" width="126" height="8.77"/></g><g id="Foot"><path id="Leg" class="cls-2" d="M353.64,432l-59.05,59.05-14.27-14.2a4.49,4.49,0,0,0-6.05,0,4.75,4.75,0,0,0,0,6.61q10.16,10.17,20.3,20.33l6.38-6.38L360,438.36Z" transform="translate(-233.5 -431.29)"/><path id="Shoe" class="cls-3" d="M294.59,491.05l-14.27-14.2a4.49,4.49,0,0,0-6.05,0,4.91,4.91,0,0,0-1.31,2.69,5.06,5.06,0,0,0,1.31,3.92q10.16,10.17,20.3,20.33l6.38-6.38a4.72,4.72,0,0,1-2.42.58,4.88,4.88,0,0,1-3-1.25,4.71,4.71,0,0,1-1.38-2.49A4.78,4.78,0,0,1,294.59,491.05Z" transform="translate(-233.5 -431.29)"/><path id="Toe-Box" class="cls-4" d="M280.32,476.85l-6.05,6.61a4.73,4.73,0,0,1-1.41-3.6,4.41,4.41,0,0,1,4.5-4.18A4.6,4.6,0,0,1,280.32,476.85Z" transform="translate(-233.5 -431.29)"/><g id="Shoelaces"><g id="Shoelace-Bottom"><path class="cls-5" d="M287.42,488.89a4.94,4.94,0,0,1,.82.45,5.24,5.24,0,0,1,2.93-2,6,6,0,0,0-.82-.85A5.94,5.94,0,0,0,287.42,488.89Z" transform="translate(-233.5 -431.29)"/><path class="cls-6" d="M287.42,488.89a4.94,4.94,0,0,1,.82.45,5.24,5.24,0,0,1,2.93-2,6,6,0,0,0-.82-.85A5.94,5.94,0,0,0,287.42,488.89Z" transform="translate(-233.5 -431.29)"/></g><g id="Shoelace-Middle"><path class="cls-5" d="M286,487.46a4.63,4.63,0,0,1,.82.45,5.24,5.24,0,0,1,2.93-2,6.61,6.61,0,0,0-.82-.86A5.86,5.86,0,0,0,286,487.46Z" transform="translate(-233.5 -431.29)"/><path class="cls-6" d="M286,487.46a4.63,4.63,0,0,1,.82.45,5.24,5.24,0,0,1,2.93-2,6.61,6.61,0,0,0-.82-.86A5.86,5.86,0,0,0,286,487.46Z" transform="translate(-233.5 -431.29)"/></g><g id="Shoelace-Top"><path class="cls-5" d="M284.42,485.9a4.36,4.36,0,0,1,.83.44,5.28,5.28,0,0,1,2.93-2,7.35,7.35,0,0,0-.82-.86A5.93,5.93,0,0,0,284.42,485.9Z" transform="translate(-233.5 -431.29)"/><path class="cls-6" d="M284.42,485.9a4.36,4.36,0,0,1,.83.44,5.28,5.28,0,0,1,2.93-2,7.35,7.35,0,0,0-.82-.86A5.93,5.93,0,0,0,284.42,485.9Z" transform="translate(-233.5 -431.29)"/></g></g></g></svg>